<mxfile host="65bd71144e">
    <diagram id="72ppFwzPpywjOJl8Rteg" name="Página-1">
        <mxGraphModel dx="1307" dy="384" grid="1" gridSize="10" guides="1" tooltips="1" connect="1" arrows="1" fold="1" page="1" pageScale="1" pageWidth="827" pageHeight="1169" math="0" shadow="0">
            <root>
                <mxCell id="0"/>
                <mxCell id="1" parent="0"/>
                <mxCell id="2" value="&lt;font style=&quot;font-size: 16px;&quot;&gt;&lt;b&gt;INICIO&lt;/b&gt;&lt;/font&gt;" style="ellipse;whiteSpace=wrap;html=1;fillColor=#76608a;fontColor=#ffffff;strokeColor=#432D57;" parent="1" vertex="1">
                    <mxGeometry x="200" y="20" width="150" height="90" as="geometry"/>
                </mxCell>
                <mxCell id="3" value="&lt;font color=&quot;#000000&quot; face=&quot;Verdana&quot;&gt;&lt;b&gt;Minicalculadora Guanentina&lt;br&gt;······································&lt;br&gt;1-- sumar (x+y)&lt;br&gt;2-- restar (x-y)&lt;br&gt;3-- multiplicar (x*y)&lt;br&gt;4-- división (x/y)&lt;br&gt;5-- potencia (x**y)&lt;br&gt;6-- logaritmo (math.log(x,y))&lt;/b&gt;&lt;/font&gt;" style="shape=document;whiteSpace=wrap;html=1;boundedLbl=1;fontSize=16;fillColor=#b0e3e6;strokeColor=#0e8088;" parent="1" vertex="1">
                    <mxGeometry x="130" y="140" width="300" height="220" as="geometry"/>
                </mxCell>
                <mxCell id="6" value="" style="endArrow=none;html=1;fontSize=16;exitX=0.5;exitY=0;exitDx=0;exitDy=0;" parent="1" edge="1" source="7">
                    <mxGeometry width="50" height="50" relative="1" as="geometry">
                        <mxPoint x="279.33000000000004" y="360" as="sourcePoint"/>
                        <mxPoint x="279.33000000000004" y="330" as="targetPoint"/>
                    </mxGeometry>
                </mxCell>
                <mxCell id="7" value="x,y" style="shape=parallelogram;perimeter=parallelogramPerimeter;whiteSpace=wrap;html=1;fixedSize=1;fontSize=22;fontStyle=1;fontFamily=Verdana;fillColor=#e6d0de;gradientColor=#d5739d;strokeColor=#996185;fontColor=#1a1919;" parent="1" vertex="1">
                    <mxGeometry x="205" y="380" width="150" height="80" as="geometry"/>
                </mxCell>
                <mxCell id="10" value="" style="endArrow=none;html=1;fontSize=16;" parent="1" edge="1" target="3">
                    <mxGeometry width="50" height="50" relative="1" as="geometry">
                        <mxPoint x="284.33" y="360" as="sourcePoint"/>
                        <mxPoint x="284.65999999999997" y="330" as="targetPoint"/>
                    </mxGeometry>
                </mxCell>
                <mxCell id="13" value="" style="endArrow=none;html=1;fontSize=16;" parent="1" edge="1">
                    <mxGeometry width="50" height="50" relative="1" as="geometry">
                        <mxPoint x="-570" y="1030" as="sourcePoint"/>
                        <mxPoint x="-470" y="1029.83" as="targetPoint"/>
                    </mxGeometry>
                </mxCell>
                <mxCell id="16" value="&lt;b&gt;&lt;font face=&quot;Verdana&quot; style=&quot;font-size: 19px;&quot;&gt;opc&lt;/font&gt;&lt;/b&gt;" style="shape=parallelogram;perimeter=parallelogramPerimeter;whiteSpace=wrap;html=1;fixedSize=1;fontSize=16;fillColor=#a20025;fontColor=#ffffff;strokeColor=#6F0000;" parent="1" vertex="1">
                    <mxGeometry x="210" y="500" width="140" height="70" as="geometry"/>
                </mxCell>
                <mxCell id="17" value="" style="endArrow=none;html=1;fontSize=16;" parent="1" edge="1">
                    <mxGeometry width="50" height="50" relative="1" as="geometry">
                        <mxPoint x="-350" y="1070" as="sourcePoint"/>
                        <mxPoint x="-350" y="1030" as="targetPoint"/>
                    </mxGeometry>
                </mxCell>
                <mxCell id="18" value="opc=1" style="rhombus;whiteSpace=wrap;html=1;fontSize=16;fillColor=#008a00;fontColor=#ffffff;strokeColor=#005700;" parent="1" vertex="1">
                    <mxGeometry x="236.25" y="600" width="87.5" height="100" as="geometry"/>
                </mxCell>
                <mxCell id="19" value="r=&amp;nbsp; x+y" style="rounded=0;whiteSpace=wrap;html=1;fontSize=16;fillColor=#a0522d;fontColor=#ffffff;strokeColor=#6D1F00;" parent="1" vertex="1">
                    <mxGeometry x="380" y="680" width="90" height="60" as="geometry"/>
                </mxCell>
                <mxCell id="20" value="" style="endArrow=none;html=1;fontSize=16;" parent="1" edge="1">
                    <mxGeometry width="50" height="50" relative="1" as="geometry">
                        <mxPoint x="-440" y="950" as="sourcePoint"/>
                        <mxPoint x="-360" y="949.83" as="targetPoint"/>
                    </mxGeometry>
                </mxCell>
                <mxCell id="21" value="opc= 2" style="rhombus;whiteSpace=wrap;html=1;fontSize=16;fillColor=#0050ef;fontColor=#ffffff;strokeColor=#001DBC;" parent="1" vertex="1">
                    <mxGeometry y="680" width="80" height="80" as="geometry"/>
                </mxCell>
                <mxCell id="22" value="" style="endArrow=none;html=1;fontSize=16;exitX=0.5;exitY=0;exitDx=0;exitDy=0;" parent="1" edge="1">
                    <mxGeometry width="50" height="50" relative="1" as="geometry">
                        <mxPoint x="279.83000000000004" y="600" as="sourcePoint"/>
                        <mxPoint x="279.33000000000004" y="570" as="targetPoint"/>
                    </mxGeometry>
                </mxCell>
                <mxCell id="23" value="" style="endArrow=none;html=1;fontSize=16;exitX=0.5;exitY=0;exitDx=0;exitDy=0;" parent="1" edge="1">
                    <mxGeometry width="50" height="50" relative="1" as="geometry">
                        <mxPoint x="279.33" y="500" as="sourcePoint"/>
                        <mxPoint x="279.33" y="460" as="targetPoint"/>
                    </mxGeometry>
                </mxCell>
                <mxCell id="24" value="" style="endArrow=none;html=1;fontSize=16;" parent="1" edge="1">
                    <mxGeometry width="50" height="50" relative="1" as="geometry">
                        <mxPoint x="323.75" y="649.33" as="sourcePoint"/>
                        <mxPoint x="423.75" y="649.83" as="targetPoint"/>
                    </mxGeometry>
                </mxCell>
                <mxCell id="25" value="" style="endArrow=none;html=1;fontSize=16;exitX=0.5;exitY=0;exitDx=0;exitDy=0;" parent="1" edge="1">
                    <mxGeometry width="50" height="50" relative="1" as="geometry">
                        <mxPoint x="424.83" y="680" as="sourcePoint"/>
                        <mxPoint x="424.33" y="650" as="targetPoint"/>
                    </mxGeometry>
                </mxCell>
                <mxCell id="26" value="r= x-y" style="rounded=0;whiteSpace=wrap;html=1;fontSize=16;fillColor=#76608a;fontColor=#ffffff;strokeColor=#432D57;" parent="1" vertex="1">
                    <mxGeometry x="100" y="750" width="90" height="55" as="geometry"/>
                </mxCell>
                <mxCell id="27" value="" style="endArrow=none;html=1;fontSize=16;" parent="1" edge="1">
                    <mxGeometry width="50" height="50" relative="1" as="geometry">
                        <mxPoint x="-60" y="719" as="sourcePoint"/>
                        <mxPoint x="0.5" y="719.33" as="targetPoint"/>
                    </mxGeometry>
                </mxCell>
                <mxCell id="28" value="" style="endArrow=none;html=1;fontSize=16;exitX=0.5;exitY=0;exitDx=0;exitDy=0;" parent="1" edge="1">
                    <mxGeometry width="50" height="50" relative="1" as="geometry">
                        <mxPoint x="-60" y="760" as="sourcePoint"/>
                        <mxPoint x="-60" y="720" as="targetPoint"/>
                    </mxGeometry>
                </mxCell>
                <mxCell id="29" value="opc= 3" style="rhombus;whiteSpace=wrap;html=1;fontSize=16;fillColor=#a20025;fontColor=#ffffff;strokeColor=#6F0000;" parent="1" vertex="1">
                    <mxGeometry x="-100" y="760" width="80" height="80" as="geometry"/>
                </mxCell>
                <mxCell id="30" value="" style="endArrow=none;html=1;fontSize=16;" parent="1" edge="1">
                    <mxGeometry width="50" height="50" relative="1" as="geometry">
                        <mxPoint x="40" y="649" as="sourcePoint"/>
                        <mxPoint x="236.25" y="649.33" as="targetPoint"/>
                    </mxGeometry>
                </mxCell>
                <mxCell id="31" value="" style="endArrow=none;html=1;fontSize=16;" parent="1" edge="1">
                    <mxGeometry width="50" height="50" relative="1" as="geometry">
                        <mxPoint x="-190" y="840" as="sourcePoint"/>
                        <mxPoint x="-190" y="800" as="targetPoint"/>
                    </mxGeometry>
                </mxCell>
                <mxCell id="34" value="r= x*y" style="rounded=0;whiteSpace=wrap;html=1;fontSize=16;fillColor=#647687;fontColor=#ffffff;strokeColor=#314354;" parent="1" vertex="1">
                    <mxGeometry x="-20" y="830" width="90" height="55" as="geometry"/>
                </mxCell>
                <mxCell id="36" value="" style="endArrow=none;html=1;fontSize=16;exitX=0.5;exitY=0;exitDx=0;exitDy=0;" parent="1" edge="1">
                    <mxGeometry width="50" height="50" relative="1" as="geometry">
                        <mxPoint x="39.83" y="680" as="sourcePoint"/>
                        <mxPoint x="39.33" y="650" as="targetPoint"/>
                    </mxGeometry>
                </mxCell>
                <mxCell id="37" value="opc= 4" style="rhombus;whiteSpace=wrap;html=1;fontSize=16;fillColor=#6a00ff;fontColor=#ffffff;strokeColor=#3700CC;" parent="1" vertex="1">
                    <mxGeometry x="-230" y="840" width="80" height="80" as="geometry"/>
                </mxCell>
                <mxCell id="38" value="" style="endArrow=none;html=1;fontSize=16;" parent="1" edge="1">
                    <mxGeometry width="50" height="50" relative="1" as="geometry">
                        <mxPoint x="-190" y="800" as="sourcePoint"/>
                        <mxPoint x="-100" y="799.83" as="targetPoint"/>
                    </mxGeometry>
                </mxCell>
                <mxCell id="39" value="" style="endArrow=none;html=1;fontSize=16;exitX=0.5;exitY=0;exitDx=0;exitDy=0;" parent="1" edge="1">
                    <mxGeometry width="50" height="50" relative="1" as="geometry">
                        <mxPoint x="140.50000000000003" y="750" as="sourcePoint"/>
                        <mxPoint x="140.00000000000003" y="720" as="targetPoint"/>
                    </mxGeometry>
                </mxCell>
                <mxCell id="40" value="r= x/y" style="rounded=0;whiteSpace=wrap;html=1;fontSize=16;fillColor=#6d8764;fontColor=#ffffff;strokeColor=#3A5431;" parent="1" vertex="1">
                    <mxGeometry x="-150" y="910" width="90" height="55" as="geometry"/>
                </mxCell>
                <mxCell id="41" value="" style="endArrow=none;html=1;fontSize=16;" parent="1" edge="1">
                    <mxGeometry width="50" height="50" relative="1" as="geometry">
                        <mxPoint x="80" y="719.33" as="sourcePoint"/>
                        <mxPoint x="140" y="720" as="targetPoint"/>
                    </mxGeometry>
                </mxCell>
                <mxCell id="42" value="" style="endArrow=none;html=1;fontSize=16;exitX=0.5;exitY=0;exitDx=0;exitDy=0;" parent="1" edge="1">
                    <mxGeometry width="50" height="50" relative="1" as="geometry">
                        <mxPoint x="-240.66999999999996" y="990" as="sourcePoint"/>
                        <mxPoint x="-240.66999999999996" y="950" as="targetPoint"/>
                    </mxGeometry>
                </mxCell>
                <mxCell id="43" value="opc= 5" style="rhombus;whiteSpace=wrap;html=1;fontSize=16;fillColor=#1ba1e2;fontColor=#ffffff;strokeColor=#006EAF;" parent="1" vertex="1">
                    <mxGeometry x="-360" y="910" width="80" height="80" as="geometry"/>
                </mxCell>
                <mxCell id="45" value="" style="endArrow=none;html=1;fontSize=16;" parent="1" edge="1">
                    <mxGeometry width="50" height="50" relative="1" as="geometry">
                        <mxPoint x="-280" y="949.3299999999999" as="sourcePoint"/>
                        <mxPoint x="-240" y="949.8299999999999" as="targetPoint"/>
                    </mxGeometry>
                </mxCell>
                <mxCell id="46" value="&lt;div style=&quot;text-align: start;&quot;&gt;&lt;span style=&quot;background-color: initial;&quot;&gt;r= x**y&lt;/span&gt;&lt;/div&gt;" style="rounded=0;whiteSpace=wrap;html=1;fontSize=16;fillColor=#fa6800;fontColor=#000000;strokeColor=#C73500;" parent="1" vertex="1">
                    <mxGeometry x="-285" y="990" width="90" height="55" as="geometry"/>
                </mxCell>
                <mxCell id="47" value="" style="endArrow=none;html=1;fontSize=16;exitX=0.5;exitY=0;exitDx=0;exitDy=0;" parent="1" edge="1">
                    <mxGeometry width="50" height="50" relative="1" as="geometry">
                        <mxPoint x="-319.5" y="910" as="sourcePoint"/>
                        <mxPoint x="-320" y="880" as="targetPoint"/>
                    </mxGeometry>
                </mxCell>
                <mxCell id="48" value="" style="endArrow=none;html=1;fontSize=16;" parent="1" edge="1">
                    <mxGeometry width="50" height="50" relative="1" as="geometry">
                        <mxPoint x="-150" y="879.3299999999999" as="sourcePoint"/>
                        <mxPoint x="-110" y="879.8299999999999" as="targetPoint"/>
                    </mxGeometry>
                </mxCell>
                <mxCell id="49" value="" style="endArrow=none;html=1;fontSize=16;exitX=0.5;exitY=0;exitDx=0;exitDy=0;" parent="1" edge="1">
                    <mxGeometry width="50" height="50" relative="1" as="geometry">
                        <mxPoint x="30.5" y="830" as="sourcePoint"/>
                        <mxPoint x="30" y="800" as="targetPoint"/>
                    </mxGeometry>
                </mxCell>
                <mxCell id="50" value="opc= 6" style="rhombus;whiteSpace=wrap;html=1;fontSize=16;fillColor=#60a917;fontColor=#ffffff;strokeColor=#2D7600;" parent="1" vertex="1">
                    <mxGeometry x="-480" y="990" width="80" height="80" as="geometry"/>
                </mxCell>
                <mxCell id="51" value="" style="endArrow=none;html=1;fontSize=16;" parent="1" edge="1">
                    <mxGeometry width="50" height="50" relative="1" as="geometry">
                        <mxPoint x="-20" y="799.33" as="sourcePoint"/>
                        <mxPoint x="30" y="800" as="targetPoint"/>
                    </mxGeometry>
                </mxCell>
                <mxCell id="52" value="" style="endArrow=none;html=1;fontSize=16;" parent="1" edge="1">
                    <mxGeometry width="50" height="50" relative="1" as="geometry">
                        <mxPoint x="-440" y="990" as="sourcePoint"/>
                        <mxPoint x="-440" y="950" as="targetPoint"/>
                    </mxGeometry>
                </mxCell>
                <mxCell id="53" value="&lt;div style=&quot;text-align: start;&quot;&gt;&lt;span style=&quot;background-color: initial;&quot;&gt;r= math.log(x, y)&lt;/span&gt;&lt;/div&gt;" style="rounded=0;whiteSpace=wrap;html=1;fontSize=16;fillColor=#f0a30a;fontColor=#000000;strokeColor=#BD7000;" parent="1" vertex="1">
                    <mxGeometry x="-413" y="1070" width="120" height="55" as="geometry"/>
                </mxCell>
                <mxCell id="58" value="" style="endArrow=none;html=1;fontSize=16;" parent="1" edge="1">
                    <mxGeometry width="50" height="50" relative="1" as="geometry">
                        <mxPoint x="-320" y="880" as="sourcePoint"/>
                        <mxPoint x="-230" y="879.3299999999999" as="targetPoint"/>
                    </mxGeometry>
                </mxCell>
                <mxCell id="61" value="" style="endArrow=none;html=1;fontSize=16;exitX=0.5;exitY=0;exitDx=0;exitDy=0;" parent="1" edge="1">
                    <mxGeometry width="50" height="50" relative="1" as="geometry">
                        <mxPoint x="-109.5" y="910" as="sourcePoint"/>
                        <mxPoint x="-110" y="880" as="targetPoint"/>
                    </mxGeometry>
                </mxCell>
                <mxCell id="62" value="" style="endArrow=none;html=1;fontSize=16;" edge="1" parent="1">
                    <mxGeometry width="50" height="50" relative="1" as="geometry">
                        <mxPoint x="279" y="140" as="sourcePoint"/>
                        <mxPoint x="279.33" y="110" as="targetPoint"/>
                    </mxGeometry>
                </mxCell>
                <mxCell id="65" value="" style="endArrow=none;html=1;fontSize=16;" edge="1" parent="1">
                    <mxGeometry width="50" height="50" relative="1" as="geometry">
                        <mxPoint x="-400" y="1029.33" as="sourcePoint"/>
                        <mxPoint x="-350" y="1029.33" as="targetPoint"/>
                    </mxGeometry>
                </mxCell>
                <mxCell id="66" value="" style="endArrow=none;html=1;fontSize=16;" edge="1" parent="1">
                    <mxGeometry width="50" height="50" relative="1" as="geometry">
                        <mxPoint x="-570" y="1070" as="sourcePoint"/>
                        <mxPoint x="-570" y="1030" as="targetPoint"/>
                    </mxGeometry>
                </mxCell>
                <mxCell id="67" value="&lt;span style=&quot;color: rgb(240, 240, 240); font-family: Helvetica;&quot;&gt;&lt;font style=&quot;font-size: 15px;&quot;&gt;opción no válida&lt;/font&gt;&lt;/span&gt;" style="shape=document;whiteSpace=wrap;html=1;boundedLbl=1;fontFamily=Verdana;fontSize=19;fontColor=#ffffff;fillColor=#6a00ff;strokeColor=#3700CC;" vertex="1" parent="1">
                    <mxGeometry x="-630" y="1070" width="120" height="80" as="geometry"/>
                </mxCell>
                <mxCell id="68" value="" style="endArrow=none;html=1;fontFamily=Verdana;fontSize=15;fontColor=#1a1919;" edge="1" parent="1">
                    <mxGeometry width="50" height="50" relative="1" as="geometry">
                        <mxPoint x="-570" y="1200" as="sourcePoint"/>
                        <mxPoint x="-570" y="1140" as="targetPoint"/>
                    </mxGeometry>
                </mxCell>
                <mxCell id="69" value="" style="endArrow=none;html=1;fontFamily=Verdana;fontSize=15;fontColor=#1a1919;" edge="1" parent="1">
                    <mxGeometry width="50" height="50" relative="1" as="geometry">
                        <mxPoint x="-570" y="1200" as="sourcePoint"/>
                        <mxPoint x="430" y="1200" as="targetPoint"/>
                    </mxGeometry>
                </mxCell>
                <mxCell id="70" value="" style="endArrow=none;html=1;fontFamily=Verdana;fontSize=15;fontColor=#1a1919;" edge="1" parent="1">
                    <mxGeometry width="50" height="50" relative="1" as="geometry">
                        <mxPoint x="430" y="1200" as="sourcePoint"/>
                        <mxPoint x="430.33" y="740" as="targetPoint"/>
                    </mxGeometry>
                </mxCell>
                <mxCell id="71" value="" style="endArrow=none;html=1;fontFamily=Verdana;fontSize=15;fontColor=#1a1919;" edge="1" parent="1">
                    <mxGeometry width="50" height="50" relative="1" as="geometry">
                        <mxPoint x="140" y="1200" as="sourcePoint"/>
                        <mxPoint x="140.32999999999993" y="805" as="targetPoint"/>
                    </mxGeometry>
                </mxCell>
                <mxCell id="72" value="" style="endArrow=none;html=1;fontFamily=Verdana;fontSize=15;fontColor=#1a1919;" edge="1" parent="1">
                    <mxGeometry width="50" height="50" relative="1" as="geometry">
                        <mxPoint x="30" y="1200" as="sourcePoint"/>
                        <mxPoint x="30.329999999999927" y="885" as="targetPoint"/>
                    </mxGeometry>
                </mxCell>
                <mxCell id="73" value="" style="endArrow=none;html=1;fontFamily=Verdana;fontSize=15;fontColor=#1a1919;" edge="1" parent="1">
                    <mxGeometry width="50" height="50" relative="1" as="geometry">
                        <mxPoint x="-110" y="1200" as="sourcePoint"/>
                        <mxPoint x="-109.67000000000007" y="965" as="targetPoint"/>
                    </mxGeometry>
                </mxCell>
                <mxCell id="74" value="" style="endArrow=none;html=1;fontFamily=Verdana;fontSize=15;fontColor=#1a1919;" edge="1" parent="1">
                    <mxGeometry width="50" height="50" relative="1" as="geometry">
                        <mxPoint x="-240" y="1200" as="sourcePoint"/>
                        <mxPoint x="-240.34000000000006" y="1045" as="targetPoint"/>
                    </mxGeometry>
                </mxCell>
                <mxCell id="75" value="" style="endArrow=none;html=1;fontFamily=Verdana;fontSize=15;fontColor=#1a1919;" edge="1" parent="1">
                    <mxGeometry width="50" height="50" relative="1" as="geometry">
                        <mxPoint x="-354" y="1200" as="sourcePoint"/>
                        <mxPoint x="-353.67000000000013" y="1120" as="targetPoint"/>
                    </mxGeometry>
                </mxCell>
                <mxCell id="76" value="" style="endArrow=none;html=1;fontFamily=Verdana;fontSize=15;fontColor=#1a1919;" edge="1" parent="1">
                    <mxGeometry width="50" height="50" relative="1" as="geometry">
                        <mxPoint x="-62.86" y="1300" as="sourcePoint"/>
                        <mxPoint x="-62.86" y="1200" as="targetPoint"/>
                    </mxGeometry>
                </mxCell>
                <mxCell id="78" value="r" style="shape=document;whiteSpace=wrap;html=1;boundedLbl=1;fontFamily=Verdana;fontSize=27;fillColor=#f8cecc;gradientColor=#ea6b66;strokeColor=#b85450;fontColor=#000000;" vertex="1" parent="1">
                    <mxGeometry x="-120" y="1300" width="120" height="80" as="geometry"/>
                </mxCell>
                <mxCell id="79" value="" style="endArrow=none;html=1;fontFamily=Verdana;fontSize=15;fontColor=#FFFFFF;" edge="1" parent="1">
                    <mxGeometry width="50" height="50" relative="1" as="geometry">
                        <mxPoint x="-60" y="1440" as="sourcePoint"/>
                        <mxPoint x="-60" y="1370" as="targetPoint"/>
                    </mxGeometry>
                </mxCell>
                <mxCell id="80" value="FIN" style="ellipse;whiteSpace=wrap;html=1;fontFamily=Verdana;fontSize=21;fillColor=#e6d0de;gradientColor=#d5739d;strokeColor=#996185;fontColor=#000000;" vertex="1" parent="1">
                    <mxGeometry x="-140" y="1440" width="160" height="100" as="geometry"/>
                </mxCell>
            </root>
        </mxGraphModel>
    </diagram>
</mxfile>